<svg width="169" height="240" viewBox="0 0 169 240" fill="none" xmlns="http://www.w3.org/2000/svg">
<path d="M94.8381 196.097L104.709 190.175L51.2732 157.905C33.3183 147.062 10.0029 156.808 5.10486 177.203L2.02374 190.032C-5.45082 221.156 24.8407 248.015 54.8461 236.87L126.634 210.204L94.8381 196.097L50.6166 214.053C36.0296 219.976 20.553 207.736 22.9565 192.176C24.9945 178.983 39.0081 171.328 51.2111 176.742L94.8381 196.097Z" fill="white"/>
<path d="M169 0.5L39.4775 45.0782C17.2964 52.7124 13.7732 82.6035 33.5715 95.1856L105.343 140.798C123.557 152.373 123.214 179.072 104.709 190.175L132.481 206.946C160.434 191.373 160.187 151.077 132.046 135.846L74.3493 104.62C49.7931 91.3303 50.8383 55.7444 76.1323 43.9187L169 0.5Z" fill="white"/>
<path d="M104.709 190.175L94.8381 196.097L126.634 210.204L132.481 206.946L104.709 190.175Z" fill="white"/>
<path d="M126.634 210.204L169 229L132.481 206.946L126.634 210.204Z" fill="white"/>
</svg>
